<svg xmlns="http://www.w3.org/2000/svg" xmlns:xlink="http://www.w3.org/1999/xlink" width="500" zoomAndPan="magnify" viewBox="0 0 375 374.999991" height="500" preserveAspectRatio="xMidYMid meet" version="1.0"><defs><clipPath id="ac95c25c86"><path d="M 1.964844 1.964844 L 373.035156 1.964844 L 373.035156 373.035156 L 1.964844 373.035156 Z M 1.964844 1.964844 " clip-rule="nonzero"/></clipPath><clipPath id="9a0d77f093"><path d="M 76.964844 1.964844 L 298.035156 1.964844 C 339.457031 1.964844 373.035156 35.542969 373.035156 76.964844 L 373.035156 298.035156 C 373.035156 339.457031 339.457031 373.035156 298.035156 373.035156 L 76.964844 373.035156 C 35.542969 373.035156 1.964844 339.457031 1.964844 298.035156 L 1.964844 76.964844 C 1.964844 35.542969 35.542969 1.964844 76.964844 1.964844 Z M 76.964844 1.964844 " clip-rule="nonzero"/></clipPath><clipPath id="ea82f14ca9"><path d="M 78.246094 77.460938 L 296.496094 77.460938 L 296.496094 307.710938 L 78.246094 307.710938 Z M 78.246094 77.460938 " clip-rule="nonzero"/></clipPath></defs><g clip-path="url(#ac95c25c86)"><g clip-path="url(#9a0d77f093)"><path fill="#000000" d="M 1.964844 1.964844 L 373.035156 1.964844 L 373.035156 373.035156 L 1.964844 373.035156 Z M 1.964844 1.964844 " fill-opacity="1" fill-rule="nonzero"/></g></g><g clip-path="url(#ea82f14ca9)"><path fill="#ffffff" d="M 166.964844 77.453125 L 78.25 77.453125 L 78.25 136.597656 C 78.25 146.65625 83.300781 156.109375 91.804688 161.480469 C 91.882812 161.527344 91.957031 161.578125 92.035156 161.625 C 100.269531 166.976562 107.3125 173.953125 115.542969 179.359375 C 122.867188 184.183594 131.472656 191.074219 140.632812 191.390625 C 160.859375 192.113281 161.746094 163.980469 159.835938 150.015625 C 158.492188 140.171875 155.917969 130.480469 153.605469 120.832031 C 153.007812 118.371094 152.417969 115.914062 151.828125 113.453125 C 151.332031 111.402344 150.214844 108.820312 150.527344 106.6875 C 151.175781 102.359375 155.539062 102.742188 158.695312 103.730469 C 166.664062 106.214844 174.054688 110.660156 179.890625 116.632812 C 185.617188 122.492188 189.222656 129.582031 193.074219 136.695312 C 196.8125 143.609375 200.992188 150.578125 207.460938 155.292969 C 213.453125 159.652344 221.480469 160.714844 227.128906 165.53125 C 233.453125 170.933594 231.46875 179.976562 228.332031 186.699219 C 228.175781 186.945312 228.050781 187.203125 227.945312 187.488281 C 227.875 187.644531 227.796875 187.800781 227.71875 187.957031 C 224.105469 195.066406 218.339844 201.367188 211.199219 205.011719 C 202.816406 209.28125 194.398438 207.957031 185.375 207.785156 C 177.199219 207.613281 169.589844 209.429688 163.289062 214.84375 C 157.554688 219.777344 153.644531 226.382812 150.253906 233.039062 C 145.652344 242.058594 141.550781 251.363281 137.242188 260.53125 C 136.644531 261.800781 134.75 270.277344 132.433594 281.300781 C 129.605469 294.777344 139.886719 307.453125 153.65625 307.453125 L 165.652344 307.453125 C 248.449219 307.453125 296.75 258.164062 296.75 191.789062 L 296.75 191.140625 C 296.75 124.765625 249.101562 77.453125 166.964844 77.453125 Z M 170.246094 137.097656 C 162.882812 136.457031 163.851562 125.027344 171.226562 125.667969 C 178.585938 126.308594 177.621094 137.738281 170.246094 137.097656 " fill-opacity="1" fill-rule="nonzero"/></g></svg>